<svg xmlns="http://www.w3.org/2000/svg" viewBox="0 0 1600 900" width="1600" height="900" role="img" aria-label="Topographic atlas motif">
  <defs>
    <radialGradient id="wash" cx="18%" cy="14%" r="120%">
      <stop offset="0%" stop-color="#EFE9D8"/>
      <stop offset="58%" stop-color="#EFE9D8"/>
      <stop offset="100%" stop-color="#EAD9B0"/>
    </radialGradient>
  </defs>
<rect width="1600" height="900" fill="#EFE9D8"/>
<rect width="1600" height="900" fill="url(#wash)"/>
<path d="M96 0V900M192 0V900M288 0V900M384 0V900M480 0V900M576 0V900M672 0V900M768 0V900M864 0V900M960 0V900M1056 0V900M1152 0V900M1248 0V900M1344 0V900M1440 0V900M1536 0V900M0 96H1600M0 192H1600M0 288H1600M0 384H1600M0 480H1600M0 576H1600M0 672H1600M0 768H1600M0 864H1600" stroke="#6B6F66" stroke-width="1" opacity="0.06" fill="none"/>
<polyline points="-20 -14.01 -6 -20.3 8 -25.74 22 -30.26 36 -33.81 50 -36.41 64 -38.1 78 -38.98 92 -39.17 106 -38.81 120 -38.07 134 -37.1 148 -36.07 162 -35.12 176 -34.37 190 -33.91 204 -33.79 218 -34.05 232 -34.68 246 -35.63 260 -36.84 274 -38.22 288 -39.68 302 -41.11 316 -42.42 330 -43.51 344 -44.32 358 -44.8 372 -44.92 386 -44.68 400 -44.11 414 -43.25 428 -42.17 442 -40.95 456 -39.65 470 -38.36 484 -37.14 498 -36.04 512 -35.09 526 -34.27 540 -33.57 554 -32.93 568 -32.27 582 -31.48 596 -30.46 610 -29.08 624 -27.22 638 -24.78 652 -21.67 666 -17.83 680 -13.23 694 -7.89 708 -1.86 722 4.75 736 11.82 750 19.18 764 26.61 778 33.91 792 40.84 806 47.19 820 52.72 834 57.27 848 60.66 862 62.78 876 63.55 890 62.96 904 61.02 918 57.82 932 53.46 946 48.1 960 41.92 974 35.12 988 27.92 1002 20.51 1016 13.09 1030 5.83 1044 -1.11 1058 -7.62 1072 -13.62 1086 -19.06 1100 -23.95 1114 -28.28 1128 -32.11 1142 -35.5 1156 -38.52 1170 -41.24 1184 -43.73 1198 -46.04 1212 -48.22 1226 -50.27 1240 -52.21 1254 -54 1268 -55.59 1282 -56.93 1296 -57.94 1310 -58.54 1324 -58.67 1338 -58.26 1352 -57.27 1366 -55.69 1380 -53.51 1394 -50.78 1408 -47.56 1422 -43.95 1436 -40.07 1450 -36.07 1464 -32.08 1478 -28.26 1492 -24.77 1506 -21.73 1520 -19.25 1534 -17.41 1548 -16.25 1562 -15.77 1576 -15.93 1590 -16.65 1604 -17.81 1618 -19.27" fill="none" stroke="#287743" stroke-width="1.6" opacity="0.11" stroke-linecap="round"/>
<polyline points="-20 75.11 -6 73.96 8 72.88 22 71.75 36 70.43 50 68.78 64 66.66 78 63.94 92 60.54 106 56.38 120 51.46 134 45.81 148 39.53 162 32.74 176 25.63 190 18.42 204 11.33 218 4.62 232 -1.47 246 -6.72 260 -10.94 274 -13.98 288 -15.74 302 -16.2 316 -15.36 330 -13.31 344 -10.17 358 -6.13 372 -1.39 386 3.83 400 9.3 414 14.78 428 20.09 442 25.05 456 29.53 470 33.46 484 36.8 498 39.58 512 41.85 526 43.71 540 45.28 554 46.69 568 48.1 582 49.61 596 51.34 610 53.37 624 55.72 638 58.39 652 61.35 666 64.5 680 67.74 694 70.91 708 73.88 722 76.48 736 78.58 750 80.06 764 80.84 778 80.87 792 80.16 806 78.75 820 76.75 834 74.29 848 71.55 862 68.73 876 66.01 890 63.62 904 61.73 918 60.49 932 60.01 946 60.37 960 61.58 974 63.57 988 66.27 1002 69.51 1016 73.11 1030 76.85 1044 80.51 1058 83.84 1072 86.64 1086 88.7 1100 89.87 1114 90.05 1128 89.18 1142 87.26 1156 84.35 1170 80.54 1184 75.99 1198 70.87 1212 65.37 1226 59.7 1240 54.05 1254 48.59 1268 43.46 1282 38.77 1296 34.58 1310 30.92 1324 27.75 1338 25.02 1352 22.64 1366 20.49 1380 18.46 1394 16.44 1408 14.34 1422 12.07 1436 9.59 1450 6.93 1464 4.1 1478 1.21 1492 -1.63 1506 -4.26 1520 -6.52 1534 -8.23 1548 -9.21 1562 -9.31 1576 -8.4 1590 -6.4 1604 -3.27 1618 0.97" fill="none" stroke="#6B6F66" stroke-width="1.1" opacity="0.08" stroke-linecap="round"/>
<polyline points="-20 139.69 -6 144.85 8 149.6 22 153.67 36 156.85 50 158.93 64 159.8 78 159.38 92 157.71 106 154.88 120 151.06 134 146.49 148 141.44 162 136.23 176 131.15 190 126.49 204 122.51 218 119.38 232 117.22 246 116.08 260 115.91 274 116.58 288 117.94 302 119.73 316 121.72 330 123.63 344 125.23 358 126.29 372 126.67 386 126.27 400 125.05 414 123.07 428 120.43 442 117.29 456 113.84 470 110.3 484 106.88 498 103.77 512 101.11 526 99.02 540 97.51 554 96.58 568 96.11 582 95.98 596 96.01 610 95.98 624 95.69 638 94.97 652 93.65 666 91.65 680 88.92 694 85.53 708 81.57 722 77.23 736 72.75 750 68.4 764 64.47 778 61.25 792 59.01 806 57.96 820 58.25 834 59.97 848 63.1 862 67.56 876 73.18 890 79.73 904 86.93 918 94.48 932 102.06 946 109.37 960 116.16 974 122.23 988 127.42 1002 131.68 1016 135.01 1030 137.49 1044 139.25 1058 140.46 1072 141.31 1086 142 1100 142.71 1114 143.57 1128 144.68 1142 146.06 1156 147.71 1170 149.51 1184 151.34 1198 153.01 1212 154.33 1226 155.09 1240 155.11 1254 154.24 1268 152.4 1282 149.54 1296 145.72 1310 141.05 1324 135.7 1338 129.92 1352 123.97 1366 118.15 1380 112.73 1394 107.99 1408 104.14 1422 101.34 1436 99.66 1450 99.1 1464 99.58 1478 100.95 1492 102.99 1506 105.44 1520 108.01 1534 110.42 1548 112.4 1562 113.71 1576 114.2 1590 113.76 1604 112.37 1618 110.08" fill="none" stroke="#6B6F66" stroke-width="1.1" opacity="0.08" stroke-linecap="round"/>
<polyline points="-20 225.99 -6 224.19 8 221.32 22 217.55 36 213.15 50 208.38 64 203.52 78 198.86 92 194.63 106 191.03 120 188.23 134 186.29 148 185.24 162 185.04 176 185.58 190 186.72 204 188.28 218 190.1 232 191.99 246 193.79 260 195.39 274 196.69 288 197.68 302 198.36 316 198.77 330 198.99 344 199.13 358 199.29 372 199.54 386 199.95 400 200.56 414 201.33 428 202.21 442 203.09 456 203.81 470 204.2 484 204.08 498 203.24 512 201.54 526 198.84 540 195.05 554 190.17 568 184.24 582 177.39 596 169.79 610 161.68 624 153.33 638 145.03 652 137.1 666 129.8 680 123.38 694 118.04 708 113.91 722 111.05 736 109.46 750 109.06 764 109.73 778 111.3 792 113.57 806 116.33 820 119.38 834 122.54 848 125.68 862 128.69 876 131.52 890 134.18 904 136.69 918 139.14 932 141.6 946 144.18 960 146.94 974 149.96 988 153.25 1002 156.79 1016 160.51 1030 164.32 1044 168.07 1058 171.58 1072 174.68 1086 177.2 1100 178.97 1114 179.89 1128 179.89 1142 178.97 1156 177.18 1170 174.64 1184 171.54 1198 168.1 1212 164.58 1226 161.27 1240 158.42 1254 156.29 1268 155.08 1282 154.94 1296 155.96 1310 158.15 1324 161.45 1338 165.74 1352 170.84 1366 176.55 1380 182.6 1394 188.78 1408 194.84 1422 200.58 1436 205.84 1450 210.51 1464 214.53 1478 217.9 1492 220.66 1506 222.88 1520 224.66 1534 226.1 1548 227.3 1562 228.33 1576 229.24 1590 230.03 1604 230.66 1618 231.06" fill="none" stroke="#6B6F66" stroke-width="1.1" opacity="0.11" stroke-linecap="round"/>
<polyline points="-20 225.06 -6 223.01 8 221.5 22 220.67 36 220.56 50 221.15 64 222.31 78 223.85 92 225.52 106 227.08 120 228.28 134 228.91 148 228.84 162 228 176 226.43 190 224.26 204 221.69 218 219.02 232 216.54 246 214.59 260 213.49 274 213.48 288 214.74 302 217.36 316 221.33 330 226.5 344 232.67 358 239.52 372 246.7 386 253.84 400 260.57 414 266.55 428 271.54 442 275.36 456 277.94 470 279.31 484 279.59 498 278.97 512 277.7 526 276.05 540 274.28 554 272.63 568 271.25 582 270.24 596 269.6 610 269.25 624 269.03 638 268.71 652 268.06 666 266.8 680 264.71 694 261.61 708 257.41 722 252.09 736 245.73 750 238.54 764 230.78 778 222.79 792 214.94 806 207.61 820 201.15 834 195.86 848 191.95 862 189.54 876 188.63 890 189.13 904 190.84 918 193.49 932 196.77 946 200.34 960 203.88 974 207.11 988 209.81 1002 211.87 1016 213.25 1030 214 1044 214.27 1058 214.26 1072 214.2 1086 214.34 1100 214.92 1114 216.1 1128 217.99 1142 220.62 1156 223.91 1170 227.72 1184 231.81 1198 235.89 1212 239.67 1226 242.84 1240 245.13 1254 246.34 1268 246.35 1282 245.13 1296 242.78 1310 239.48 1324 235.49 1338 231.14 1352 226.8 1366 222.83 1380 219.57 1394 217.29 1408 216.19 1422 216.35 1436 217.77 1450 220.33 1464 223.84 1478 228.03 1492 232.59 1506 237.2 1520 241.58 1534 245.48 1548 248.73 1562 251.23 1576 253 1590 254.13 1604 254.78 1618 255.16" fill="none" stroke="#287743" stroke-width="1.6" opacity="0.08" stroke-linecap="round"/>
<polyline points="-20 302.43 -6 305.98 8 310.2 22 314.85 36 319.63 50 324.23 64 328.34 78 331.7 92 334.07 106 335.31 120 335.34 134 334.16 148 331.85 162 328.58 176 324.52 190 319.93 204 315.05 218 310.11 232 305.3 246 300.79 260 296.66 274 292.96 288 289.65 302 286.66 316 283.87 330 281.13 344 278.32 358 275.31 372 272.02 386 268.43 400 264.56 414 260.5 428 256.4 442 252.47 456 248.92 470 245.99 484 243.92 498 242.9 512 243.06 526 244.5 540 247.2 554 251.08 568 255.98 582 261.67 596 267.87 610 274.27 624 280.54 638 286.39 652 291.56 666 295.83 680 299.09 694 301.28 708 302.44 722 302.66 736 302.13 750 301.03 764 299.62 778 298.12 792 296.74 806 295.65 820 294.98 834 294.77 848 295.02 862 295.66 876 296.58 890 297.63 904 298.66 918 299.5 932 300.04 946 300.19 960 299.92 974 299.27 988 298.33 1002 297.25 1016 296.22 1030 295.45 1044 295.16 1058 295.55 1072 296.78 1086 298.94 1100 302.08 1114 306.13 1128 310.98 1142 316.42 1156 322.2 1170 328.03 1184 333.59 1198 338.56 1212 342.67 1226 345.7 1240 347.49 1254 347.94 1268 347.07 1282 344.97 1296 341.77 1310 337.7 1324 333.01 1338 327.94 1352 322.75 1366 317.66 1380 312.86 1394 308.44 1408 304.47 1422 300.93 1436 297.75 1450 294.84 1464 292.04 1478 289.22 1492 286.26 1506 283.05 1520 279.55 1534 275.78 1548 271.79 1562 267.73 1576 263.75 1590 260.08 1604 256.94 1618 254.54" fill="none" stroke="#6B6F66" stroke-width="1.1" opacity="0.08" stroke-linecap="round"/>
<polyline points="-20 356.49 -6 353.87 8 350.38 22 346.04 36 340.91 50 335.15 64 328.95 78 322.56 92 316.25 106 310.32 120 305.04 134 300.67 148 297.41 162 295.39 176 294.71 190 295.34 204 297.21 218 300.18 232 304.03 246 308.52 260 313.37 274 318.3 288 323.04 302 327.35 316 331.06 330 334.03 344 336.21 358 337.61 372 338.32 386 338.46 400 338.22 414 337.81 428 337.45 442 337.35 456 337.71 470 338.66 484 340.29 498 342.63 512 345.65 526 349.24 540 353.24 554 357.46 568 361.68 582 365.65 596 369.16 610 372 624 374.03 638 375.15 652 375.34 666 374.64 680 373.16 694 371.07 708 368.59 722 365.98 736 363.52 750 361.46 764 360.06 778 359.51 792 359.95 806 361.47 820 364.05 834 367.63 848 372.06 862 377.14 876 382.62 890 388.22 904 393.64 918 398.63 932 402.92 946 406.33 960 408.72 974 410.02 988 410.22 1002 409.41 1016 407.71 1030 405.31 1044 402.42 1058 399.28 1072 396.11 1086 393.12 1100 390.49 1114 388.32 1128 386.68 1142 385.56 1156 384.89 1170 384.54 1184 384.34 1198 384.09 1212 383.57 1226 382.58 1240 380.93 1254 378.47 1268 375.12 1282 370.86 1296 365.73 1310 359.84 1324 353.37 1338 346.55 1352 339.64 1366 332.94 1380 326.72 1394 321.24 1408 316.73 1422 313.36 1436 311.23 1450 310.36 1464 310.71 1478 312.15 1492 314.5 1506 317.53 1520 320.97 1534 324.53 1548 327.95 1562 330.98 1576 333.42 1590 335.11 1604 335.98 1618 336.01" fill="none" stroke="#6B6F66" stroke-width="1.1" opacity="0.11" stroke-linecap="round"/>
<polyline points="-20 433.27 -6 437.1 8 439.8 22 441.37 36 441.85 50 441.34 64 439.99 78 437.97 92 435.45 106 432.65 120 429.76 134 426.97 148 424.43 162 422.28 176 420.62 190 419.51 204 418.95 218 418.93 232 419.4 246 420.28 260 421.46 274 422.83 288 424.27 302 425.69 316 426.98 330 428.08 344 428.95 358 429.57 372 429.97 386 430.19 400 430.31 414 430.42 428 430.63 442 431.04 456 431.76 470 432.87 484 434.44 498 436.5 512 439.06 526 442.06 540 445.43 554 449.05 568 452.76 582 456.4 596 459.76 610 462.64 624 464.84 638 466.17 652 466.48 666 465.64 680 463.58 694 460.25 708 455.7 722 449.99 736 443.26 750 435.69 764 427.5 778 418.94 792 410.28 806 401.79 820 393.74 834 386.38 848 379.94 862 374.57 876 370.43 890 367.59 904 366.05 918 365.8 932 366.75 946 368.76 960 371.67 974 375.27 988 379.36 1002 383.73 1016 388.15 1030 392.44 1044 396.43 1058 400 1072 403.04 1086 405.52 1100 407.41 1114 408.76 1128 409.61 1142 410.07 1156 410.23 1170 410.21 1184 410.13 1198 410.1 1212 410.2 1226 410.5 1240 411.03 1254 411.81 1268 412.79 1282 413.94 1296 415.17 1310 416.38 1324 417.47 1338 418.34 1352 418.87 1366 419 1380 418.67 1394 417.84 1408 416.52 1422 414.76 1436 412.65 1450 410.31 1464 407.87 1478 405.52 1492 403.44 1506 401.81 1520 400.82 1534 400.63 1548 401.36 1562 403.11 1576 405.93 1590 409.81 1604 414.7 1618 420.5" fill="none" stroke="#6B6F66" stroke-width="1.1" opacity="0.08" stroke-linecap="round"/>
<polyline points="-20 473.06 -6 467.89 8 463.22 22 459.2 36 455.97 50 453.65 64 452.28 78 451.87 92 452.36 106 453.65 120 455.6 134 458.02 148 460.7 162 463.43 176 465.99 190 468.17 204 469.82 218 470.8 232 471.02 246 470.46 260 469.13 274 467.11 288 464.51 302 461.47 316 458.15 330 454.74 344 451.41 358 448.31 372 445.57 386 443.3 400 441.54 414 440.34 428 439.65 442 439.44 456 439.62 470 440.11 484 440.79 498 441.57 512 442.38 526 443.16 540 443.88 554 444.55 568 445.22 582 445.95 596 446.85 610 448.04 624 449.63 638 451.75 652 454.5 666 457.95 680 462.14 694 467.08 708 472.69 722 478.89 736 485.53 750 492.43 764 499.38 778 506.16 792 512.54 806 518.3 820 523.26 834 527.27 848 530.2 862 532.02 876 532.71 890 532.35 904 531.02 918 528.89 932 526.13 946 522.95 960 519.55 974 516.13 988 512.88 1002 509.93 1016 507.42 1030 505.39 1044 503.86 1058 502.83 1072 502.22 1086 501.95 1100 501.89 1114 501.94 1128 501.96 1142 501.85 1156 501.52 1170 500.93 1184 500.04 1198 498.88 1212 497.49 1226 495.94 1240 494.34 1254 492.78 1268 491.38 1282 490.23 1296 489.4 1310 488.94 1324 488.85 1338 489.11 1352 489.63 1366 490.32 1380 491.02 1394 491.59 1408 491.85 1422 491.64 1436 490.8 1450 489.22 1464 486.8 1478 483.52 1492 479.38 1506 474.45 1520 468.84 1534 462.73 1548 456.31 1562 449.81 1576 443.45 1590 437.48 1604 432.11 1618 427.51" fill="none" stroke="#287743" stroke-width="1.6" opacity="0.08" stroke-linecap="round"/>
<polyline points="-20 578.64 -6 580.24 8 581.41 22 582.34 36 583.23 50 584.22 64 585.42 78 586.85 92 588.5 106 590.28 120 592.06 134 593.66 148 594.89 162 595.52 176 595.37 190 594.28 204 592.13 218 588.89 232 584.57 246 579.27 260 573.16 274 566.46 288 559.45 302 552.44 316 545.73 330 539.61 344 534.35 358 530.15 372 527.14 386 525.4 400 524.88 414 525.5 428 527.08 442 529.39 456 532.15 470 535.09 484 537.92 498 540.36 512 542.21 526 543.31 540 543.55 554 542.93 568 541.49 582 539.35 596 536.67 610 533.67 624 530.56 638 527.56 652 524.86 666 522.63 680 520.97 694 519.92 708 519.46 722 519.5 736 519.91 750 520.5 764 521.07 778 521.42 792 521.35 806 520.69 820 519.35 834 517.27 848 514.48 862 511.07 876 507.21 890 503.12 904 499.07 918 495.34 932 492.25 946 490.05 960 488.99 974 489.26 988 490.96 1002 494.13 1016 498.71 1030 504.57 1044 511.51 1058 519.27 1072 527.55 1086 536.04 1100 544.43 1114 552.43 1128 559.79 1142 566.34 1156 571.95 1170 576.59 1184 580.27 1198 583.1 1212 585.21 1226 586.77 1240 587.98 1254 589.03 1268 590.07 1282 591.23 1296 592.58 1310 594.13 1324 595.83 1338 597.57 1352 599.19 1366 600.49 1380 601.26 1394 601.28 1408 600.36 1422 598.34 1436 595.12 1450 590.67 1464 585.04 1478 578.35 1492 570.78 1506 562.59 1520 554.07 1534 545.54 1548 537.34 1562 529.78 1576 523.11 1590 517.57 1604 513.29 1618 510.33" fill="none" stroke="#6B6F66" stroke-width="1.1" opacity="0.11" stroke-linecap="round"/>
<polyline points="-20 629.94 -6 630 8 629.46 22 628.18 36 626.06 50 623.03 64 619.06 78 614.19 92 608.48 106 602.04 120 595.03 134 587.65 148 580.11 162 572.64 176 565.46 190 558.81 204 552.89 218 547.87 232 543.89 246 541.04 260 539.37 274 538.85 288 539.45 302 541.05 316 543.51 330 546.65 344 550.29 358 554.22 372 558.23 386 562.13 400 565.76 414 568.96 428 571.63 442 573.72 456 575.19 470 576.07 484 576.42 498 576.32 512 575.9 526 575.28 540 574.62 554 574.06 568 573.71 582 573.71 596 574.13 610 575.03 624 576.45 638 578.37 652 580.75 666 583.53 680 586.61 694 589.91 708 593.3 722 596.67 736 599.93 750 602.98 764 605.78 778 608.27 792 610.46 806 612.37 820 614.05 834 615.57 848 617.02 862 618.52 876 620.16 890 622.05 904 624.28 918 626.91 932 629.98 946 633.5 960 637.43 974 641.7 988 646.22 1002 650.85 1016 655.42 1030 659.77 1044 663.71 1058 667.05 1072 669.64 1086 671.33 1100 672 1114 671.57 1128 670.03 1142 667.38 1156 663.69 1170 659.07 1184 653.67 1198 647.69 1212 641.32 1226 634.8 1240 628.35 1254 622.19 1268 616.53 1282 611.53 1296 607.33 1310 604.01 1324 601.62 1338 600.14 1352 599.52 1366 599.65 1380 600.39 1394 601.58 1408 603.03 1422 604.54 1436 605.91 1450 606.96 1464 607.54 1478 607.51 1492 606.79 1506 605.33 1520 603.12 1534 600.21 1548 596.66 1562 592.59 1576 588.14 1590 583.45 1604 578.69 1618 574.02" fill="none" stroke="#6B6F66" stroke-width="1.1" opacity="0.08" stroke-linecap="round"/>
<polyline points="-20 611.49 -6 607.41 8 603.84 22 600.95 36 598.92 50 597.9 64 598.01 78 599.3 92 601.79 106 605.45 120 610.17 134 615.83 148 622.22 162 629.16 176 636.4 190 643.73 204 650.94 218 657.84 232 664.28 246 670.15 260 675.4 274 680 288 684 302 687.45 316 690.45 330 693.12 344 695.55 358 697.86 372 700.11 386 702.37 400 704.65 414 706.93 428 709.14 442 711.19 456 712.97 470 714.35 484 715.19 498 715.36 512 714.77 526 713.34 540 711.05 554 707.91 568 704 582 699.42 596 694.32 610 688.9 624 683.35 638 677.89 652 672.72 666 668.03 680 663.96 694 660.63 708 658.09 722 656.35 736 655.37 750 655.06 764 655.28 778 655.89 792 656.7 806 657.55 820 658.28 834 658.75 848 658.85 862 658.52 876 657.75 890 656.57 904 655.03 918 653.23 932 651.31 946 649.39 960 647.59 974 646.06 988 644.86 1002 644.07 1016 643.71 1030 643.76 1044 644.17 1058 644.83 1072 645.62 1086 646.42 1100 647.07 1114 647.45 1128 647.44 1142 646.96 1156 645.98 1170 644.49 1184 642.55 1198 640.25 1212 637.75 1226 635.2 1240 632.8 1254 630.74 1268 629.22 1282 628.4 1296 628.42 1310 629.37 1324 631.29 1338 634.17 1352 637.95 1366 642.52 1380 647.73 1394 653.41 1408 659.35 1422 665.38 1436 671.29 1450 676.94 1464 682.18 1478 686.93 1492 691.14 1506 694.81 1520 697.97 1534 700.69 1548 703.06 1562 705.17 1576 707.13 1590 709.02 1604 710.91 1618 712.82" fill="none" stroke="#6B6F66" stroke-width="1.1" opacity="0.08" stroke-linecap="round"/>
<polyline points="-20 691.45 -6 693.58 8 696.31 22 699.63 36 703.46 50 707.67 64 712.08 78 716.48 92 720.64 106 724.31 120 727.27 134 729.36 148 730.43 162 730.44 176 729.4 190 727.4 204 724.61 218 721.23 232 717.54 246 713.82 260 710.36 274 707.41 288 705.22 302 703.95 316 703.71 330 704.53 344 706.37 358 709.12 372 712.63 386 716.71 400 721.14 414 725.71 428 730.23 442 734.53 456 738.51 470 742.09 484 745.29 498 748.13 512 750.69 526 753.08 540 755.4 554 757.75 568 760.22 582 762.84 596 765.6 610 768.44 624 771.26 638 773.9 652 776.18 666 777.9 680 778.86 694 778.9 708 777.88 722 775.72 736 772.41 750 768.02 764 762.67 778 756.56 792 749.95 806 743.11 820 736.35 834 729.96 848 724.22 862 719.33 876 715.45 890 712.68 904 711.03 918 710.42 932 710.74 946 711.8 960 713.37 974 715.24 988 717.17 1002 718.95 1016 720.42 1030 721.47 1044 722.04 1058 722.12 1072 721.78 1086 721.09 1100 720.18 1114 719.19 1128 718.24 1142 717.43 1156 716.84 1170 716.48 1184 716.34 1198 716.34 1212 716.36 1226 716.26 1240 715.88 1254 715.08 1268 713.7 1282 711.65 1296 708.9 1310 705.44 1324 701.38 1338 696.84 1352 692.04 1366 687.23 1380 682.66 1394 678.63 1408 675.39 1422 673.18 1436 672.18 1450 672.48 1464 674.12 1478 677.06 1492 681.17 1506 686.27 1520 692.11 1534 698.44 1548 704.98 1562 711.45 1576 717.63 1590 723.31 1604 728.36 1618 732.71" fill="none" stroke="#287743" stroke-width="1.6" opacity="0.11" stroke-linecap="round"/>
<polyline points="-20 846.11 -6 849.98 8 852.77 22 854.26 36 854.32 50 852.87 64 849.92 78 845.56 92 839.96 106 833.36 120 826.03 134 818.3 148 810.49 162 802.92 176 795.87 190 789.58 204 784.24 218 779.94 232 776.72 246 774.52 260 773.24 274 772.7 288 772.71 302 773.01 316 773.39 330 773.63 344 773.53 358 772.97 372 771.87 386 770.22 400 768.07 414 765.54 428 762.77 442 759.96 456 757.33 470 755.09 484 753.42 498 752.48 512 752.36 526 753.12 540 754.72 554 757.07 568 760.01 582 763.34 596 766.82 610 770.17 624 773.14 638 775.48 652 776.99 666 777.52 680 776.98 694 775.38 708 772.78 722 769.33 736 765.25 750 760.8 764 756.27 778 751.99 792 748.27 806 745.38 820 743.55 834 742.97 848 743.73 862 745.84 876 749.26 890 753.85 904 759.4 918 765.68 932 772.4 946 779.28 960 786.04 974 792.42 988 798.22 1002 803.3 1016 807.56 1030 810.99 1044 813.65 1058 815.64 1072 817.12 1086 818.26 1100 819.27 1114 820.34 1128 821.62 1142 823.25 1156 825.28 1170 827.74 1184 830.57 1198 833.66 1212 836.83 1226 839.87 1240 842.57 1254 844.66 1268 845.93 1282 846.18 1296 845.26 1310 843.09 1324 839.65 1338 835.01 1352 829.3 1366 822.72 1380 815.54 1394 808.06 1408 800.6 1422 793.48 1436 786.99 1450 781.41 1464 776.91 1478 773.64 1492 771.65 1506 770.89 1520 771.27 1534 772.61 1548 774.68 1562 777.2 1576 779.89 1590 782.47 1604 784.66 1618 786.27" fill="none" stroke="#6B6F66" stroke-width="1.1" opacity="0.08" stroke-linecap="round"/>
<polyline points="-20 806.76 -6 811.78 8 817.16 22 822.67 36 828.06 50 833.1 64 837.56 78 841.22 92 843.94 106 845.59 120 846.13 134 845.56 148 843.98 162 841.52 176 838.38 190 834.8 204 831.05 218 827.43 232 824.21 246 821.68 260 820.07 274 819.57 288 820.3 302 822.35 316 825.7 330 830.29 344 835.97 358 842.57 372 849.84 386 857.52 400 865.33 414 873 428 880.27 442 886.9 456 892.7 470 897.55 484 901.36 498 904.12 512 905.85 526 906.64 540 906.62 554 905.95 568 904.78 582 903.31 596 901.69 610 900.08 624 898.58 638 897.28 652 896.2 666 895.34 680 894.66 694 894.07 708 893.46 722 892.72 736 891.73 750 890.37 764 888.54 778 886.19 792 883.29 806 879.86 820 875.95 834 871.68 848 867.19 862 862.64 876 858.22 890 854.13 904 850.54 918 847.63 932 845.53 946 844.3 960 844 974 844.6 988 846 1002 848.08 1016 850.64 1030 853.45 1044 856.28 1058 858.84 1072 860.87 1086 862.15 1100 862.45 1114 861.62 1128 859.57 1142 856.25 1156 851.71 1170 846.05 1184 839.43 1198 832.09 1212 824.28 1226 816.29 1240 808.43 1254 801.01 1268 794.29 1282 788.52 1296 783.89 1310 780.54 1324 778.54 1338 777.89 1352 778.53 1366 780.34 1380 783.15 1394 786.77 1408 790.97 1422 795.5 1436 800.15 1450 804.71 1464 808.99 1478 812.87 1492 816.26 1506 819.11 1520 821.45 1534 823.32 1548 824.82 1562 826.06 1576 827.19 1590 828.33 1604 829.61 1618 831.14" fill="none" stroke="#6B6F66" stroke-width="1.1" opacity="0.08" stroke-linecap="round"/>
<polyline points="-20 903.72 -6 906.86 8 910.19 22 913.35 36 916.03 50 917.97 64 918.98 78 918.99 92 917.98 106 916.08 120 913.47 134 910.38 148 907.1 162 903.92 176 901.09 190 898.83 204 897.29 218 896.51 232 896.48 246 897.05 260 898.03 274 899.17 288 900.16 302 900.71 316 900.54 330 899.44 344 897.26 358 893.95 372 889.56 386 884.23 400 878.22 414 871.82 428 865.4 442 859.34 456 854 470 849.7 484 846.7 498 845.17 512 845.16 526 846.63 540 849.45 554 853.39 568 858.17 582 863.46 596 868.94 610 874.31 624 879.31 638 883.76 652 887.58 666 890.75 680 893.37 694 895.61 708 897.68 722 899.83 736 902.34 750 905.42 764 909.27 778 913.98 792 919.58 806 925.98 820 933.02 834 940.45 848 947.95 862 955.17 876 961.75 890 967.35 904 971.69 918 974.56 932 975.85 946 975.54 960 973.74 974 970.64 988 966.51 1002 961.68 1016 956.51 1030 951.36 1044 946.56 1058 942.37 1072 938.98 1086 936.48 1100 934.87 1114 934.06 1128 933.85 1142 934.03 1156 934.31 1170 934.42 1184 934.11 1198 933.17 1212 931.49 1226 929.01 1240 925.79 1254 921.97 1268 917.75 1282 913.41 1296 909.26 1310 905.6 1324 902.7 1338 900.81 1352 900.06 1366 900.51 1380 902.12 1394 904.74 1408 908.14 1422 912.02 1436 916.01 1450 919.77 1464 922.92 1478 925.18 1492 926.29 1506 926.11 1520 924.59 1534 921.78 1548 917.86 1562 913.04 1576 907.62 1590 901.94 1604 896.33 1618 891.09" fill="none" stroke="#6B6F66" stroke-width="1.1" opacity="0.11" stroke-linecap="round"/>
<polyline points="438.45 378 439.04 379.32 445.9 381.45 443.8 382.84 442.26 384.18 441.02 385.47 440.87 387.08 438.56 387.83 439.71 390.15 439.67 392.1 435.53 391.44 433.65 391.98 435.34 395.62 432.48 395.3 429.47 394.38 428.52 395.78 426.6 395.83 425.59 397.47 423.31 396.45 422.81 400.41 419.98 396.5 418.83 400.11 416.78 396.3 415.23 396.04 413.69 396.06 411.97 396.74 409.91 398.03 407.68 399 407.63 394.99 403.44 399.11 402.8 396.74 400.78 396.51 398.78 396.08 395.64 396.54 395.78 394.01 392.58 394.12 391.73 392.46 395.64 388.43 393.89 387.64 391.9 386.8 390.84 385.51 393.4 383.31 392.71 382.06 387.65 381.27 390.7 379.45 390.53 378 390.61 376.54 387.74 374.74 390.07 373.48 390.86 372.09 393.94 371.41 394.5 370.15 396.6 369.54 397.4 368.47 393.87 364.82 398.06 365.65 399.68 365.08 398.59 362.15 401.1 362.36 403.48 362.78 402.33 358.58 403.1 356.31 405.89 357.48 406.92 355.09 409.14 355.45 410.69 353.32 413.44 357.99 415.03 355.23 417 354.48 419.19 353.13 421.36 353.07 423.19 354.35 424.54 356.45 427.27 355.12 429.05 356.06 429.18 359.29 431.64 358.99 429.46 363.88 432.86 362.65 433.01 364.53 436.07 364.19 436.11 366.02 438.22 366.62 440.47 367.33 438.76 369.69 441.26 370.46 439.41 372.5 441.51 373.55 442.8 374.91 441.98 376.51 438.45 378" fill="none" stroke="#287743" stroke-width="2" opacity="0.21"/><polyline points="463.16 378 464.07 380.76 477.83 385.13 472.91 387.92 469.2 390.51 466.11 392.95 465.24 395.98 460.17 397.26 461.96 401.55 461.46 405.08 453.24 403.62 449.47 404.51 452.55 411.29 447.12 410.66 441.48 408.97 439.77 411.77 436.27 412.08 434.5 415.55 430.24 413.95 429.44 422.2 423.94 414.94 421.73 422.71 417.6 415.46 414.41 415.33 411.16 415.72 407.52 417.42 403.13 420.33 398.38 422.48 398.28 413.97 389.48 422.58 388.28 417.38 384.24 416.61 380.38 415.39 374.31 415.97 375.05 410.43 369.09 410.27 367.94 406.63 376.14 398.42 373.14 396.69 369.7 394.9 368.02 392.32 373.15 388.08 371.98 385.67 362.47 384.17 368.16 380.74 367.64 378 367.47 375.22 361.51 371.72 365.46 369.19 366.42 366.34 371.93 364.85 372.52 362.13 376.28 360.68 377.5 358.27 369.78 350.46 378.25 352.03 381.51 350.69 379.13 344.42 384.44 344.88 389.56 345.85 387.28 337.21 389.08 332.75 395.09 335.56 397.41 331.09 402.11 332.33 405.37 328.57 410.92 338.38 414.1 333.42 417.94 332.41 422.12 330.23 426.22 330.46 429.64 333.15 432.13 337.28 437.28 334.8 440.68 336.51 441.02 342.46 445.89 341.66 441.95 350.77 448.86 348.08 449.54 351.44 456.08 350.42 456.67 353.77 461.48 354.7 466.64 355.92 463.53 360.65 469.13 362.14 465.48 366.37 470.04 368.58 472.74 371.46 470.87 374.85 463.16 378" fill="none" stroke="#287743" stroke-width="1.3" opacity="0.19"/><polyline points="487.01 378 487.56 382.1 507.03 388.49 498.92 392.45 492.78 396.05 487.76 399.42 486.1 403.59 478.63 405.31 481.09 411.35 480.44 416.39 468.98 414.45 463.91 415.94 468.75 426.04 461.37 425.62 453.58 423.69 451.51 428.43 446.66 429.55 444.33 435.5 438.06 433.67 437.01 447.1 428.52 436.2 425.08 448.82 418.53 437.5 413.47 437.3 408.34 437.79 402.62 440.2 395.82 444.36 388.61 447.13 388.72 433.37 375.62 445.89 374.25 437.29 368.72 435.47 363.56 433.04 355.26 433.32 356.9 424.8 348.82 424.22 347.58 418.76 359.47 406.96 355.31 404.46 350.37 401.96 347.75 398.37 354.67 392.42 352.47 389.07 337.94 387 345.43 382.05 343.77 378 342.59 373.79 332.56 368.38 337.74 364.36 338.49 359.77 346.57 357.28 347.14 352.86 352.91 350.49 354.83 346.66 342.74 334.35 356.44 337.02 361.93 335.19 358.69 325.81 367.42 327.02 375.73 329.04 372.75 316.57 375.93 310.63 385.21 315.52 388.92 309.65 395.96 312.08 400.78 307.21 408.77 321.6 413.31 314.78 418.75 313.44 424.68 310.29 430.54 310.37 435.52 313.81 439.28 319.24 447.03 315.01 452.4 316.79 453.37 324.92 461.22 323.03 455.73 336.3 466.88 331.66 468.45 336.47 479.14 334.55 480.42 339.62 488.23 340.99 496.45 342.92 491.34 350.49 499.84 352.98 493.56 359.76 500 363.36 503.34 367.93 499.56 373.21 487.01 378" fill="none" stroke="#287743" stroke-width="1.3" opacity="0.17"/><polyline points="506.54 378 506.65 383.2 530.82 391.23 520.38 396.19 512.7 400.74 506.65 405.06 505.04 410.51 496.19 412.96 500.15 421.12 500.26 428.2 486.13 426.25 480.24 428.87 487.61 443.22 478.31 443.39 468.13 441.37 465.65 448.52 459.13 450.51 455.98 459.15 447.16 456.63 445.62 475.43 433.58 459.73 428.67 476.84 419.51 460.38 412.54 459.32 405.6 459.14 398.05 461.47 389.23 466.03 380.07 468.69 380.59 449.87 364.09 465.28 362.77 453.6 356.11 450.81 349.85 447.43 339.54 447.63 341.56 436.94 331.14 436.39 329.09 429.78 343.63 415.08 337.54 412.21 330.19 409.33 325.64 404.97 333.77 397.33 329.76 393.03 308.81 390.35 318.12 383.61 315 378 312.75 372.08 298.24 364.43 305.47 358.73 306.71 352.3 318.51 348.9 319.9 342.92 328.66 339.92 332.11 335.02 316.58 318.77 336.08 323.01 344.27 321.2 340.82 309.53 352.95 311.82 364.23 315.06 360.85 299.68 365.24 292.66 377.17 299.19 381.91 291.96 390.76 294.98 396.77 288.57 406.82 306.36 412.55 297.06 419.55 294.54 427.35 289.46 435.25 288.47 442.17 291.93 447.61 298.23 458.62 291.51 466.49 293.11 468.26 303.77 479.6 300.68 472.07 319.15 487.86 312.55 489.95 319.44 504.67 316.99 505.9 324.44 516 326.76 526.33 329.9 518.25 340.67 528.5 344.42 518.89 353.81 526.2 358.79 529.37 364.93 523.42 371.84 506.54 378" fill="none" stroke="#287743" stroke-width="1.3" opacity="0.16"/><polyline points="523.13 378 523.8 384.18 553.54 393.85 542.22 400 534.23 405.8 528.19 411.48 527.6 418.74 517.77 422.37 524.06 433.37 525.34 443.14 507.79 441.16 500.61 445 510.7 464.24 498.5 464.59 484.94 461.81 481.44 470.94 472.51 473.01 468 483.53 456.15 479.32 453.78 502.26 438.17 481.09 431.8 501.25 420.33 479.57 411.78 477.19 403.44 475.99 394.51 477.95 384.17 482.69 373.47 485.33 374.2 462.84 354.73 481.01 353.02 467.45 344.78 464.58 336.76 461.17 323.54 462.2 324.99 450.07 310.98 450.26 307.07 442.89 324.16 425.06 315.24 421.93 304.65 418.65 297.74 413.29 307.69 403.47 301.97 397.88 274.07 394.36 286.54 385.42 282.89 378 280.7 370.24 262.86 360.35 273.57 353.17 276.62 345.23 293.04 341.3 296.17 334.25 308.31 331.05 313.68 325.57 295.93 306.47 320.3 312.15 330.7 310.45 327.03 296.97 341.57 299.88 354.89 303.71 350.75 285.33 355.64 276.52 369.48 283.59 374.78 273.96 385.14 276.5 392.2 267.33 404.49 288.21 411.63 275.27 420.56 270.82 430.73 263.11 441.2 260.82 450.47 264.64 457.8 272.52 472.43 263.47 482.79 265.72 484.88 280.18 499.34 276.68 488.92 301.47 508.6 293.67 510.31 303.32 527.84 301.05 528.1 311.21 539.3 314.82 550.57 319.33 539.48 332.92 550.71 337.79 538.36 349.23 546.42 355.27 549.83 362.58 542.79 370.73 523.13 378" fill="none" stroke="#287743" stroke-width="1.3" opacity="0.14"/><polyline points="542.92 378 545.33 385.42 583.12 397.26 571.21 405.05 562.96 412.55 556.71 420 556.94 429.46 545.1 434.29 553.35 448.38 554.89 460.75 532.25 457.98 522.59 462.41 534.44 485.87 518.28 485.35 500.61 480.86 495.44 490.82 483.82 492.03 477.7 503.22 463.12 496.91 459.9 522.37 441.53 496.71 434.06 518.9 420.92 493.5 411.21 490.45 401.77 489.01 391.61 491.44 379.71 497.35 367.18 501.2 367.59 476.26 344.27 498.59 341.38 483.98 330.55 481.88 319.72 479.05 302.31 481.54 302.88 467.58 284.28 468.63 278.44 459.96 299.49 437.7 287.92 433.84 274.55 429.64 266.23 422.7 279.55 410.08 273.37 402.86 240.05 398.28 257.12 387.11 254.41 378 253.61 368.69 234.29 357.06 248.83 348.86 254.06 339.92 274.4 335.74 279 327.98 293.54 324.61 300.01 318.57 279.98 296.96 307.38 303.26 318.75 300.99 313.87 284.99 329.8 287.53 344.46 291.03 338.7 268.21 343.58 256.24 359.48 263.29 365.31 250.07 377.64 251.83 386.15 239.19 401.47 264.6 410.45 247.68 421.8 241.76 434.71 232.06 447.91 229.59 459.42 235.19 468.28 246.07 485.96 236.02 497.96 240.2 499.61 259.25 516.03 256.4 502.53 287.19 524.69 279.02 525.58 291.23 544.79 289.39 544.16 301.65 556.21 306.16 568.55 311.49 555.89 326.93 568.9 332.37 555.5 345.2 565.7 351.91 571 360.14 564.43 369.49 542.92 378" fill="none" stroke="#287743" stroke-width="1.3" opacity="0.12"/><polyline points="570.48 378 574.58 387.09 621.95 401.73 607.76 411.42 597.56 420.69 589.41 429.76 588.86 441.11 573.27 446.57 581.9 463.01 582.11 476.97 553.54 472.64 540.7 476.75 552.99 502.76 532.99 500.79 511.79 494.45 505.1 504.55 491.5 504.93 484.28 516.58 467.96 509.12 464.34 537 444.15 508.91 435.99 533.98 421.48 506.67 410.62 504.34 399.85 504.03 387.98 508.31 373.79 516.82 358.5 523.12 358.27 495.16 329.52 523.4 325.18 506.99 311.23 505.37 297.34 502.54 275.53 505.92 276.24 488.67 253.67 489.69 247.28 478.52 274.07 450.73 261.3 445.45 246.82 439.77 238.79 430.89 256.37 415.53 251.04 406.75 214.74 401.19 236.14 388.31 234.75 378 235.24 367.64 214.9 354.82 231.66 345.87 237.65 336.06 259.85 331.4 264.34 322.63 279.58 318.52 285.68 311.23 261.58 286 291.23 292.15 302.89 288.43 295.7 268.44 313.21 270.12 329.75 273.15 321.91 244.37 327.2 228.7 346.35 236.63 353.37 219.94 368.6 222.12 379.21 206.93 398.17 238.92 409.24 219.25 423.01 213.45 438.37 203.45 453.76 202.41 466.8 210.93 476.46 225.41 496.02 215.6 508.79 222 509.78 244.8 527.34 242.64 511.76 277.5 535.85 268.86 536.68 282.44 558.02 280.28 557.88 293.48 572.2 297.97 587.4 303.27 574.81 320.02 591.63 325.58 578.25 339.85 592.34 347.26 600.82 356.7 594.96 367.74 570.48 378" fill="none" stroke="#287743" stroke-width="1.3" opacity="0.1"/><polyline points="602.64 378 606.78 388.94 662.18 406.37 643.35 417.63 629.21 428.13 617.49 438.14 614.61 450.51 594.64 455.89 602.34 473.48 600.63 487.99 567.42 482.19 552.19 485.84 564.68 513.4 542.45 510.72 519.35 503.64 512.21 514.64 497.78 515.5 490.4 528.99 473.07 522.02 469.63 554.38 447.59 524.9 438.71 555.21 422.31 526.05 409.73 525.18 396.97 526.5 382.66 533.06 365.37 544.5 346.65 553.03 346.16 519.75 311.31 554.01 306.27 533.84 289.96 531.23 274.17 526.86 249.46 529.67 251.88 507.96 227.38 507.78 222.15 493.49 254.78 460.61 242.24 453.76 227.97 446.65 220.91 436.23 241.67 418.99 236.96 409.21 198.47 403.07 221.95 389.13 220.3 378 220.19 366.77 196.9 352.75 213.54 342.71 218.14 331.48 240.78 325.7 243.69 315.09 259.03 309.56 264.19 300.21 234.05 269.6 267.53 275.85 280.34 270.57 270.9 245.86 291.64 247.48 311.59 251.07 302.32 216.55 309.17 198.39 332.74 209.02 341.74 190.6 360.34 194.95 373.26 179.23 395.52 218.2 408.32 197.67 423.87 193.17 440.87 184 457.57 184.68 471.48 195.53 481.62 212.39 502.49 202.47 516.11 209.69 517.26 234.18 536.61 231.38 520.33 268.5 547.63 258.12 549.88 271.99 575.37 268.34 577.19 281.97 595.73 285.91 615.67 290.94 603.13 309.68 624.99 315.62 610.6 332.24 628.69 340.93 639.6 352.23 632.63 365.58 602.64 378" fill="none" stroke="#287743" stroke-width="1.3" opacity="0.09"/><polyline points="630 378 632.32 390.4 691.98 409.8 668.01 421.92 649.81 432.98 634.81 443.3 629.87 456.08 607.09 461.32 614.41 479.66 612.12 494.84 576.88 488.69 561.08 492.88 575.22 523 552.44 521.2 528.58 514.87 521.99 528.53 507.2 531.34 500.03 548.53 481.26 542.7 478.05 582.08 452.93 549.72 442.78 586.9 423.48 553.59 408.54 553.2 393.32 554.97 376.32 562.53 355.98 575.4 334.26 584.28 334.32 543.77 294.71 581.92 290.19 556.68 273.08 551.75 257 544.88 231.4 546.11 236.02 520.52 211.17 518.93 207.25 502.37 243.55 466.36 230.99 458.66 216.26 450.92 208.73 439.86 230.28 421.67 224.27 411.42 181.28 405.05 204.6 390.12 200.41 378 197.63 365.48 168.54 349.48 184.46 337.64 187.07 324.17 211.17 316.87 212.89 303.85 229.83 296.83 235.28 285.4 199.17 248.82 239.31 256.43 255.16 250.64 245 222.27 270.58 225.37 295.04 230.94 285.66 192.88 294.87 174.35 322.67 188.57 333.69 170.28 354.97 177.27 369.58 162.15 393.94 205.92 407.79 185.11 424.38 181.2 442.41 171.92 460.16 172.61 475.1 183.62 486.27 200.65 509.32 188.6 525.06 194.64 527.55 219.57 550.5 214.48 533.84 254.33 566.53 240.91 570.9 255.34 602.3 249.82 606.01 264.8 629.16 268.78 653.69 274.37 639 296.58 664.71 303.77 646.72 323.75 666.66 334.31 677.48 347.87 666.99 363.61 630 378" fill="none" stroke="#287743" stroke-width="1.3" opacity="0.07"/>
<polyline points="1138.66 594 1141.92 595.26 1140.52 596.36 1141.33 597.72 1137.28 598.06 1141.53 600.43 1136.67 600.09 1136.65 601.26 1137.45 602.94 1137.92 604.68 1135.51 604.67 1133.2 604.45 1133.23 606.05 1133.41 608.08 1130.54 606.81 1129.13 606.96 1128.56 608.39 1127.85 609.94 1125.95 609.01 1124.33 608.24 1123.34 609.56 1122.12 610.51 1120.63 608.9 1119.29 610.59 1117.77 611.41 1116.69 609.39 1115.69 608.19 1113.27 610.99 1113.29 607.63 1111.45 608.38 1109.47 608.95 1109.02 607.35 1108.1 606.49 1107.15 605.71 1104.17 606.54 1104.36 604.76 1100.97 605.34 1103.58 602.42 1099.63 602.88 1100.76 601.02 1099.65 600.07 1098.78 598.99 1098.28 597.79 1100.98 596.19 1099.28 595.19 1098.5 594 1100.55 592.88 1102.53 591.99 1103.66 591.15 1100.88 589.5 1099.74 587.95 1102.56 587.63 1104.34 587.17 1103.06 585.32 1103.37 584.09 1105.48 584.01 1105.49 582.51 1107.98 583.05 1107.17 580.53 1108.6 580.15 1109.25 578.73 1111.99 580.54 1111.81 577.37 1114.34 579.72 1115.26 578.42 1116.21 576.39 1117.87 577.37 1119.29 577.44 1120.81 574.94 1121.94 578.85 1123.94 575.68 1124.4 579.53 1126.52 577.56 1127.8 578.17 1129.42 578.16 1128.63 581.74 1132.59 578.7 1133.13 580.22 1131.77 583.28 1134.03 582.89 1135.72 583.18 1137.14 583.79 1134.33 586.66 1134.63 587.62 1136.79 587.87 1138.78 588.4 1138.34 589.69 1140.82 590.37 1138.76 591.84 1139.39 592.89 1138.66 594" fill="none" stroke="#287743" stroke-width="2" opacity="0.21"/><polyline points="1169 594 1177.17 597.28 1173.05 600.11 1174.6 603.52 1163.74 604.29 1173.89 610.08 1161.26 609.06 1160.74 611.76 1162.28 615.67 1163.03 619.64 1156.97 619.44 1151.27 618.76 1151.25 622.46 1151.66 627.23 1144.92 624.29 1141.66 624.76 1140.45 628.37 1138.93 632.42 1134.49 630.57 1130.67 629.1 1128.35 632.83 1125.35 635.74 1121.62 632.12 1118.17 636.92 1114.17 639.45 1111.3 634.47 1108.6 631.48 1102.17 639 1102.23 630.07 1097.43 631.95 1092.35 633.27 1091.37 628.81 1089.24 626.29 1087.1 623.96 1079.92 625.74 1080.85 620.94 1072.9 622.06 1079.8 614.6 1070.64 615.52 1073.81 610.86 1071.49 608.48 1069.72 605.82 1068.69 602.94 1075.11 599.17 1071.01 596.81 1068.96 594 1073.52 591.33 1077.88 589.15 1080.19 587.06 1072.86 582.92 1069.42 578.9 1075.9 577.9 1079.93 576.53 1076.18 571.55 1076.59 568.14 1081.81 567.72 1081.66 563.64 1088.16 565.01 1086.03 558.35 1089.92 557.43 1091.77 553.9 1099.12 558.9 1098.82 551.01 1105.52 557.46 1108.01 554.56 1110.52 549.91 1114.72 552.83 1118.27 553.45 1121.97 547.81 1124.66 557.62 1129.39 550.35 1130.42 559.72 1135.39 555.15 1138.41 556.65 1142.26 556.57 1140.49 564.91 1150.07 557.44 1151.65 560.78 1148.66 567.89 1154.58 566.62 1159.25 567 1163.33 568.19 1156.67 575.21 1157.85 577.5 1163.84 577.99 1169.38 579.26 1168.46 582.61 1175.13 584.39 1169.65 588.28 1171.19 591.06 1169 594" fill="none" stroke="#287743" stroke-width="1.3" opacity="0.19"/><polyline points="1198.71 594 1210.79 599.21 1203.31 603.6 1204.85 608.79 1187.35 609.84 1202.32 618.57 1182.65 616.87 1181.63 620.87 1183.87 626.73 1185.07 632.76 1176.1 632.6 1167.75 631.81 1168.11 637.81 1169.23 645.67 1159.2 641.66 1154.51 643.01 1152.99 649.46 1150.92 656.76 1143.94 654.41 1137.8 652.54 1134.03 659.26 1129.04 664.51 1122.75 658.59 1116.9 666.74 1110.15 670.85 1105.35 662.12 1100.95 656.66 1090.44 668.61 1090.82 653.23 1083.33 655.65 1075.59 657.07 1074.54 649.27 1071.69 644.7 1068.87 640.56 1058.29 642.86 1060.2 635.15 1048.47 636.61 1059.19 625.16 1045.45 626.5 1050.16 619.5 1046.39 615.97 1043.23 612.05 1041.01 607.77 1050.18 602.05 1042.92 598.42 1038.68 594 1045 589.7 1051.2 586.07 1054.24 582.54 1041.38 575.52 1034.99 568.63 1045.5 566.8 1052.11 564.4 1045.74 555.95 1046.6 550.27 1055.73 549.78 1055.89 543.23 1067.22 545.93 1064.23 535.46 1071.14 534.6 1074.65 529.6 1086.85 538.27 1086.74 526.5 1097.5 537.21 1101.54 533.28 1105.52 526.65 1111.99 531.49 1117.39 532.67 1122.97 524.24 1127.05 539 1134.24 527.76 1135.92 541.66 1143.7 534.2 1148.62 535.9 1155.03 535.1 1152.64 547.65 1168.52 535.01 1171.7 539.74 1167.35 550.88 1177.67 548.33 1185.96 548.62 1193.2 550.39 1182.13 562.17 1184.14 566.03 1194.13 566.94 1203.1 569.2 1201.02 574.95 1211.41 578.07 1201.52 584.61 1203.15 589.23 1198.71 594" fill="none" stroke="#287743" stroke-width="1.3" opacity="0.16"/><polyline points="1223.49 594 1238.61 600.8 1228.37 606.49 1230.15 613.2 1207.47 614.57 1227.24 626.01 1202.07 623.96 1201.37 629.48 1205.15 637.63 1207.74 646.27 1196.59 646.7 1186.02 646.28 1187.35 655.33 1189.72 667.17 1176.08 662.17 1169.76 664.68 1167.85 674.45 1165 685.34 1154.87 681.99 1145.88 679.11 1140.32 688.5 1133.01 695.48 1123.93 686.21 1115.62 696.87 1106.21 701.55 1099.73 688.27 1093.93 679.73 1080.01 694.93 1080.94 673.28 1071.39 675.73 1061.61 676.93 1060.6 666.21 1057.16 659.95 1053.62 654.45 1039.85 657.46 1042.09 647.61 1026.3 649.82 1039.71 635.14 1020.61 637.34 1025.83 628.38 1019.51 623.99 1013.86 618.96 1009.43 613.27 1021.12 605.39 1009.75 600.32 1002.74 594 1011.22 587.76 1019.88 582.46 1024.22 577.31 1005.69 567.12 996.9 557.26 1012.78 554.86 1023.08 551.74 1014.98 540.19 1017.28 532.8 1031.05 532.8 1032.29 524.55 1048.59 528.97 1045.35 515.65 1055.22 515.25 1060.38 509.32 1076.69 521.18 1076.73 506.19 1090.79 520.28 1096.02 515.14 1101.13 506.26 1109.5 512.11 1116.55 513.03 1123.96 500.99 1129.51 519.83 1139.45 503.57 1142 521.63 1153.17 510.28 1160.54 511.73 1170.11 509.75 1167.06 527.16 1190.38 508.44 1195.24 515.03 1188.96 531.19 1203.86 527.6 1215.51 528.28 1225.35 531.24 1208.7 548.55 1210.72 554.45 1223.74 556.13 1235 559.68 1230.84 567.94 1243.67 572.45 1229.12 581.42 1230.23 587.68 1223.49 594" fill="none" stroke="#287743" stroke-width="1.3" opacity="0.14"/><polyline points="1244.68 594 1263.61 602.23 1252.17 609.23 1255.61 617.64 1228.89 619.6 1255.14 634.33 1224.73 632.24 1225.15 639.84 1231.34 651.05 1235.92 663.06 1222.07 664.23 1208.53 664.11 1210.68 676.58 1214 692.65 1195.52 685.81 1186.78 688.84 1183.84 701.33 1179.59 714.94 1165.74 709.44 1153.6 704.52 1146.1 715.36 1136.51 722.85 1124.93 709.76 1114.56 721.75 1103.05 726.25 1095.29 708.93 1088.44 697.8 1071.81 715.62 1073.05 689.29 1061.58 692.22 1049.66 693.91 1048.09 681.42 1043.36 674.44 1038.28 668.42 1020.23 673 1021.83 661.55 1000.43 665.24 1016.25 647.16 990.04 650.66 995.58 639.43 986.08 633.97 977.65 627.47 971.13 619.95 986.69 609.36 971.53 602.51 962.65 594 974.86 585.68 987.43 578.72 994.34 572.1 971.57 559.1 961.91 546.82 983.87 544.3 998.33 540.95 989.58 527.17 993.69 518.75 1011.56 519.39 1013.8 509.9 1033.96 515.64 1030.27 499.83 1042.15 499.36 1048.17 491.98 1067.56 505.84 1067.23 486.9 1084.03 503.23 1090.15 495.83 1096.23 483.44 1106.61 489.5 1115.54 489.36 1125.18 472.39 1132.56 496.01 1145.91 473.49 1149.51 496.94 1164.66 481.29 1174.65 483.08 1187.48 480.55 1183.15 504.31 1213.9 479.85 1219.62 489.44 1210.48 511.6 1228.89 507.77 1242.66 509.6 1253.76 514.31 1231.35 536.95 1232.66 544.88 1247.56 547.43 1260.21 552.15 1254.21 562.44 1269.02 568.03 1251.15 578.89 1252.48 586.4 1244.68 594" fill="none" stroke="#287743" stroke-width="1.3" opacity="0.12"/><polyline points="1269.47 594 1294.35 604 1282.5 612.73 1288.74 623.41 1256.95 626.2 1291.51 645.19 1253.84 642.86 1254.98 652.85 1263.2 667.38 1269.01 682.78 1250.8 684 1232.86 683.37 1234.76 698.51 1237.92 717.76 1213.78 708.01 1202.03 710.5 1197.53 724.35 1191.55 739.21 1174.33 731.11 1159.51 723.94 1150.41 735.42 1139.11 743.05 1125.67 727.2 1113.76 740.54 1100.57 745.6 1091.62 726 1083.59 713.75 1064.02 735.26 1064.98 705.68 1050.8 710.35 1035.67 713.77 1032.69 700.14 1025.77 692.89 1018.31 686.61 994.51 693.37 995.4 679.73 967.19 685.04 986.81 662.24 952.85 666.88 960.06 652.39 948.38 645.22 938.54 636.67 931.58 626.84 952.77 613.27 935.61 604.57 926.71 594 943.73 583.89 960.81 575.65 970.76 567.99 945.49 552.97 935.78 539.02 962.52 536.51 980 532.96 970.39 517.34 975.2 507.73 995.45 508.3 997.48 496.98 1020.06 502.98 1014.84 483.63 1027.78 481.89 1033.88 471.69 1056.34 486.97 1055.12 462.33 1075.25 481.06 1082.46 470.53 1089.83 453.68 1102.88 460.45 1114.28 459.68 1126.66 437.58 1136.15 468.04 1153.21 439.56 1157.62 470.27 1176.53 451.34 1188.56 454.86 1203.8 453.11 1197.57 483.82 1234.04 455.36 1239.62 468.45 1227.46 496.14 1248.02 492.62 1262.94 495.65 1274.74 501.81 1248.13 528.35 1249.23 537.65 1266.23 540.61 1281.03 545.94 1274.83 557.59 1293.09 563.83 1273.71 576.29 1276.93 585 1269.47 594" fill="none" stroke="#287743" stroke-width="1.3" opacity="0.1"/><polyline points="1303.46 594 1335.58 606.36 1321.95 617.27 1330.23 630.64 1290.62 634.12 1333.14 657.61 1285.53 654.43 1285.8 666.29 1294.42 683.37 1299.72 701.07 1276.06 701.38 1253.15 699.43 1253.85 715.9 1256.01 736.75 1227.06 724.15 1212.78 725.77 1207.03 740.32 1199.85 756.06 1180.41 746.46 1163.88 738.31 1153.82 751.27 1141.33 760.39 1126.37 743.63 1112.93 760.03 1097.75 767.56 1087.12 746.9 1077.29 734.45 1053.51 761.8 1053.84 728.28 1035.86 735.46 1016.5 741.01 1012.05 725.24 1002.9 716.9 993.31 709.38 963.66 717.8 965.16 700.54 931.01 706.59 956.39 677.83 916.41 682.77 927.1 664.42 915.23 655.11 905.93 644.34 900.24 632.3 927.11 616.23 909.51 606.07 901.37 594 922.14 582.65 942.35 573.53 954.05 565.08 926.19 548.43 915.14 532.86 944.2 529.82 962.72 525.43 950.49 507.14 954.23 495.24 975.74 494.74 976.3 480.21 1001.29 485.89 993.56 461.29 1007.88 457.7 1014.3 443.88 1041.28 461.65 1039.37 430.36 1064.24 453.29 1073.23 440.17 1082.5 419.62 1098.83 428.83 1112.97 429 1128.11 403.48 1139.47 442.08 1159.62 409.74 1164.38 448.04 1185.93 427.62 1199.08 433.51 1215.67 433.16 1207.74 469.38 1248.01 438.38 1253.49 453.89 1239.49 485.18 1262.18 481.41 1278.95 484.63 1292.74 491.09 1263.94 520.25 1266.42 530.16 1287.41 532.88 1306.52 538.33 1301.6 551.3 1325.6 558.16 1304.82 572.7 1310.8 583.06 1303.46 594" fill="none" stroke="#287743" stroke-width="1.3" opacity="0.07"/>
<path d="M96 563.22 L106 559.02 L116 554.53 L126 549.88 L136 545.18 L146 540.57 L156 536.19 L166 532.15 L176 528.59 L186 525.6 L196 523.29 L206 521.73 L216 520.97 L226 521.05 L236 521.97 L246 523.71 L256 526.25 L266 529.5 L276 533.39 L286 537.81 L296 542.65 L306 547.76 L316 553.01 L326 558.24 L336 563.32 L346 568.1 L356 572.44 L366 576.22 L376 579.33 L386 581.68 L396 583.2 L406 583.85 L416 583.6 L426 582.45 L436 580.42 L446 577.56 L456 573.94 L466 569.64 L476 564.75 L486 559.39 L496 553.67 L506 547.71 L516 541.63 L526 535.55 L536 529.56 L546 523.78 L556 518.27 L566 513.1 L576 508.3 L586 503.91 L596 499.92 L606 496.31 L616 493.05 L626 490.07 L636 487.3 L646 484.65 L656 482.03 L666 479.33 L676 476.44 L686 473.27 L696 469.71 L706 465.68 L716 461.09 L726 455.9 L736 450.05 L746 443.53 L756 436.33 L766 428.5 L776 420.07 L786 411.1 L796 401.71 L806 391.98 L816 382.05 L826 372.05 L836 362.12 L846 352.42 L856 343.1 L866 334.29 L876 326.13 L886 318.76 L896 312.27 L906 306.76 L916 302.3 L926 298.92 L936 296.66 L946 295.5 L956 295.42 L966 296.36 L976 298.26 L986 301.01 L996 304.5 L1006 308.62 L1016 313.23 L1026 318.2 L1036 323.37 L1046 328.63 L1056 333.83 L1066 338.87 L1076 343.64 L1086 348.06 L1096 352.06 L1106 355.6 L1116 358.65 L1126 361.22 L1136 363.32 L1146 365 L1156 366.32 L1166 367.34 L1176 368.17 L1186 368.9 L1196 369.63 L1206 370.46 L1216 371.5 L1226 372.85 L1236 374.58 L1246 376.77 L1256 379.48 L1266 382.73 L1276 386.56 L1286 390.95 L1296 395.88 L1306 401.31 L1316 407.16 L1326 413.35 L1336 419.78 L1346 426.34 L1356 432.91 L1366 439.36 L1376 445.56 L1386 451.39 L1396 456.73 L1406 461.48 L1416 465.54 L1426 468.84 L1436 471.33 L1446 472.97 L1456 473.75 L1466 473.7 L1476 472.84 L1486 471.25 L1496 469.01 L1506 466.22 L1516 462.99 L1526 459.48 L1536 455.8" fill="none" stroke="#F4A12B" stroke-width="9" opacity="0.18" stroke-linecap="round"/>
<path d="M96 563.22 L106 559.02 L116 554.53 L126 549.88 L136 545.18 L146 540.57 L156 536.19 L166 532.15 L176 528.59 L186 525.6 L196 523.29 L206 521.73 L216 520.97 L226 521.05 L236 521.97 L246 523.71 L256 526.25 L266 529.5 L276 533.39 L286 537.81 L296 542.65 L306 547.76 L316 553.01 L326 558.24 L336 563.32 L346 568.1 L356 572.44 L366 576.22 L376 579.33 L386 581.68 L396 583.2 L406 583.85 L416 583.6 L426 582.45 L436 580.42 L446 577.56 L456 573.94 L466 569.64 L476 564.75 L486 559.39 L496 553.67 L506 547.71 L516 541.63 L526 535.55 L536 529.56 L546 523.78 L556 518.27 L566 513.1 L576 508.3 L586 503.91 L596 499.92 L606 496.31 L616 493.05 L626 490.07 L636 487.3 L646 484.65 L656 482.03 L666 479.33 L676 476.44 L686 473.27 L696 469.71 L706 465.68 L716 461.09 L726 455.9 L736 450.05 L746 443.53 L756 436.33 L766 428.5 L776 420.07 L786 411.1 L796 401.71 L806 391.98 L816 382.05 L826 372.05 L836 362.12 L846 352.42 L856 343.1 L866 334.29 L876 326.13 L886 318.76 L896 312.27 L906 306.76 L916 302.3 L926 298.92 L936 296.66 L946 295.5 L956 295.42 L966 296.36 L976 298.26 L986 301.01 L996 304.5 L1006 308.62 L1016 313.23 L1026 318.2 L1036 323.37 L1046 328.63 L1056 333.83 L1066 338.87 L1076 343.64 L1086 348.06 L1096 352.06 L1106 355.6 L1116 358.65 L1126 361.22 L1136 363.32 L1146 365 L1156 366.32 L1166 367.34 L1176 368.17 L1186 368.9 L1196 369.63 L1206 370.46 L1216 371.5 L1226 372.85 L1236 374.58 L1246 376.77 L1256 379.48 L1266 382.73 L1276 386.56 L1286 390.95 L1296 395.88 L1306 401.31 L1316 407.16 L1326 413.35 L1336 419.78 L1346 426.34 L1356 432.91 L1366 439.36 L1376 445.56 L1386 451.39 L1396 456.73 L1406 461.48 L1416 465.54 L1426 468.84 L1436 471.33 L1446 472.97 L1456 473.75 L1466 473.7 L1476 472.84 L1486 471.25 L1496 469.01 L1506 466.22 L1516 462.99 L1526 459.48 L1536 455.8" fill="none" stroke="#F4A12B" stroke-width="3.4" stroke-linecap="round" stroke-dasharray="1 11"/>
<path d="M96 563.22 L106 559.02 L116 554.53 L126 549.88 L136 545.18 L146 540.57 L156 536.19 L166 532.15 L176 528.59 L186 525.6 L196 523.29 L206 521.73 L216 520.97 L226 521.05 L236 521.97 L246 523.71 L256 526.25 L266 529.5 L276 533.39 L286 537.81 L296 542.65 L306 547.76 L316 553.01 L326 558.24 L336 563.32 L346 568.1 L356 572.44 L366 576.22 L376 579.33 L386 581.68 L396 583.2 L406 583.85 L416 583.6 L426 582.45 L436 580.42 L446 577.56 L456 573.94 L466 569.64 L476 564.75 L486 559.39 L496 553.67 L506 547.71 L516 541.63 L526 535.55 L536 529.56 L546 523.78 L556 518.27 L566 513.1 L576 508.3 L586 503.91 L596 499.92 L606 496.31 L616 493.05 L626 490.07 L636 487.3 L646 484.65 L656 482.03 L666 479.33 L676 476.44 L686 473.27 L696 469.71 L706 465.68 L716 461.09 L726 455.9 L736 450.05 L746 443.53 L756 436.33 L766 428.5 L776 420.07 L786 411.1 L796 401.71 L806 391.98 L816 382.05 L826 372.05 L836 362.12 L846 352.42 L856 343.1 L866 334.29 L876 326.13 L886 318.76 L896 312.27 L906 306.76 L916 302.3 L926 298.92 L936 296.66 L946 295.5 L956 295.42 L966 296.36 L976 298.26 L986 301.01 L996 304.5 L1006 308.62 L1016 313.23 L1026 318.2 L1036 323.37 L1046 328.63 L1056 333.83 L1066 338.87 L1076 343.64 L1086 348.06 L1096 352.06 L1106 355.6 L1116 358.65 L1126 361.22 L1136 363.32 L1146 365 L1156 366.32 L1166 367.34 L1176 368.17 L1186 368.9 L1196 369.63 L1206 370.46 L1216 371.5 L1226 372.85 L1236 374.58 L1246 376.77 L1256 379.48 L1266 382.73 L1276 386.56 L1286 390.95 L1296 395.88 L1306 401.31 L1316 407.16 L1326 413.35 L1336 419.78 L1346 426.34 L1356 432.91 L1366 439.36 L1376 445.56 L1386 451.39 L1396 456.73 L1406 461.48 L1416 465.54 L1426 468.84 L1436 471.33 L1446 472.97 L1456 473.75 L1466 473.7 L1476 472.84 L1486 471.25 L1496 469.01 L1506 466.22 L1516 462.99 L1526 459.48 L1536 455.8" fill="none" stroke="#F4A12B" stroke-width="3.4" opacity="0.5" stroke-linecap="round"/>
<circle cx="156" cy="536.19" r="4.5" fill="#EFE9D8" stroke="#287743" stroke-width="2"/>
<circle cx="296" cy="542.65" r="4.5" fill="#EFE9D8" stroke="#287743" stroke-width="2"/>
<circle cx="436" cy="580.42" r="4.5" fill="#EFE9D8" stroke="#287743" stroke-width="2"/>
<circle cx="576" cy="508.3" r="4.5" fill="#EFE9D8" stroke="#287743" stroke-width="2"/>
<circle cx="716" cy="461.09" r="4.5" fill="#EFE9D8" stroke="#287743" stroke-width="2"/>
<circle cx="856" cy="343.1" r="4.5" fill="#EFE9D8" stroke="#287743" stroke-width="2"/>
<circle cx="996" cy="304.5" r="4.5" fill="#EFE9D8" stroke="#287743" stroke-width="2"/>
<circle cx="1136" cy="363.32" r="4.5" fill="#EFE9D8" stroke="#287743" stroke-width="2"/>
<circle cx="1276" cy="386.56" r="4.5" fill="#EFE9D8" stroke="#287743" stroke-width="2"/>
<circle cx="1416" cy="465.54" r="4.5" fill="#EFE9D8" stroke="#287743" stroke-width="2"/>

  <g>
    <ellipse cx="96" cy="566.3682101984623" rx="9.8175" ry="3.2340000000000004" fill="#000" opacity="0.12"/>
    <path d="M96 563.2182101984623
      C 82.7175 547.0482101984624, 84.45 537.8082101984623, 96 540.1182101984623
      C 107.55 537.8082101984623, 109.2825 547.0482101984624, 96 563.2182101984623 Z"
      fill="#287743"/>
    <circle cx="96" cy="540.7" r="4.851" fill="#EFE9D8"/>
  </g>

  <g>
    <ellipse cx="1536" cy="459.5512036904082" rx="11.6875" ry="3.8500000000000005" fill="#000" opacity="0.12"/>
    <path d="M1536 455.8012036904082
      C 1520.1875 436.5512036904082, 1522.25 425.5512036904082, 1536 428.3012036904082
      C 1549.75 425.5512036904082, 1551.8125 436.5512036904082, 1536 455.8012036904082 Z"
      fill="#D64545"/>
    <circle cx="1536" cy="428.99" r="5.7749999999999995" fill="#EFE9D8"/>
  </g>

  <g>
    <ellipse cx="1395.24" cy="303.5250735266693" rx="5.563479158119298" ry="1.832675487380475" fill="#000" opacity="0.12"/>
    <path d="M1395.24 301.74
      C 1387.7129399625444 292.57662256309766, 1388.6947304022126 287.3404068848677, 1395.24 288.6494608044252
      C 1401.7852695977874 287.3404068848677, 1402.7670600374556 292.57662256309766, 1395.24 301.74 Z"
      fill="#D64545"/>
    <circle cx="1395.24" cy="288.98" r="2.749013231070712" fill="#EFE9D8"/>
  </g>

  <g>
    <ellipse cx="1296.73" cy="279.2178801594116" rx="5.603393163499422" ry="1.8458236303292215" fill="#000" opacity="0.12"/>
    <path d="M1296.73 277.42
      C 1289.148938661148 268.1908818483539, 1290.1377727488243 262.91710004741327, 1296.73 264.23554549764845
      C 1303.3222272511757 262.91710004741327, 1304.3110613388521 268.1908818483539, 1296.73 277.42 Z"
      fill="#D64545"/>
    <circle cx="1296.73" cy="264.57" r="2.768735445493832" fill="#EFE9D8"/>
  </g>

  <g>
    <ellipse cx="1395.6" cy="371.76099079722536" rx="7.389587984685785" ry="2.4342172184847293" fill="#000" opacity="0.12"/>
    <path d="M1395.6 369.39
      C 1385.6023221383662 357.21891390757634, 1386.90636707684 350.26400756904854, 1395.6 352.0027341536805
      C 1404.2936329231597 350.26400756904854, 1405.5976778616337 357.21891390757634, 1395.6 369.39 Z"
      fill="#F4A12B"/>
    <circle cx="1395.6" cy="352.44" r="3.6513258277270935" fill="#EFE9D8"/>
  </g>

  <g>
    <ellipse cx="1405.36" cy="132.67948318210898" rx="5.265555917572928" ry="1.7345360669652001" fill="#000" opacity="0.12"/>
    <path d="M1405.36 130.99
      C 1398.2360125821072 122.31731966517401, 1399.1652283322671 117.36150233098772, 1405.36 118.60045666453429
      C 1411.5547716677327 117.36150233098772, 1412.4839874178926 122.31731966517401, 1405.36 130.99 Z"
      fill="#D64545"/>
    <circle cx="1405.36" cy="118.91" r="2.6018041004478" fill="#EFE9D8"/>
  </g>

  <g>
    <ellipse cx="1418.81" cy="137.4925310131628" rx="7.14505499102408" ry="2.3536651735138148" fill="#000" opacity="0.12"/>
    <path d="M1418.81 135.2
      C 1409.1431608944968 123.43167413243091, 1410.4040529517363 116.70691649382, 1418.81 118.38810590347273
      C 1427.2159470482636 116.70691649382, 1428.4768391055031 123.43167413243091, 1418.81 135.2 Z"
      fill="#D64545"/>
    <circle cx="1418.81" cy="118.81" r="3.530497760270722" fill="#EFE9D8"/>
  </g>

  <g>
    <ellipse cx="1206.87" cy="361.68607725604903" rx="6.002940781352808" ry="1.977439316210337" fill="#000" opacity="0.12"/>
    <path d="M1206.87 359.76
      C 1198.7483742369932 349.8728034189483, 1199.8077167278202 344.2229768012045, 1206.87 345.63543345564045
      C 1213.9322832721796 344.2229768012045, 1214.9916257630066 349.8728034189483, 1206.87 359.76 Z"
      fill="#D64545"/>
    <circle cx="1206.87" cy="345.99" r="2.9661589743155052" fill="#EFE9D8"/>
  </g>

  <g>
    <ellipse cx="1088.83" cy="235.11647234782112" rx="7.282005484042457" ry="2.398778277096339" fill="#000" opacity="0.12"/>
    <path d="M1088.83 232.78
      C 1078.9778749333543 220.7861086145183, 1080.262934724656 213.93245639424305, 1088.83 215.64586944931187
      C 1097.397065275344 213.93245639424305, 1098.6821250666455 220.7861086145183, 1088.83 232.78 Z"
      fill="#D64545"/>
    <circle cx="1088.83" cy="216.07" r="3.598167415644508" fill="#EFE9D8"/>
  </g>

  <g>
    <ellipse cx="1380.72" cy="210.9143644325668" rx="6.589769148166525" ry="2.170747484101914" fill="#000" opacity="0.12"/>
    <path d="M1380.72 208.8
      C 1371.80442997601 197.94626257949045, 1372.9673304139217 191.7441269106278, 1380.72 193.29466082784347
      C 1388.4726695860784 191.7441269106278, 1389.63557002399 197.94626257949045, 1380.72 208.8 Z"
      fill="#F4A12B"/>
    <circle cx="1380.72" cy="193.68" r="3.256121226152871" fill="#EFE9D8"/>
  </g>

  <g>
    <ellipse cx="1430.96" cy="142.96893120007587" rx="6.292335573569872" ry="2.072769365411252" fill="#000" opacity="0.12"/>
    <path d="M1430.96 140.95
      C 1422.4468401063466 130.58615317294374, 1423.5572522663883 124.66395498605443, 1430.96 126.14450453277676
      C 1438.3627477336117 124.66395498605443, 1439.4731598936535 130.58615317294374, 1430.96 140.95 Z"
      fill="#F4A12B"/>
    <circle cx="1430.96" cy="126.51" r="3.109154048116878" fill="#EFE9D8"/>
  </g>
</svg>